<svg width="39" height="39" viewBox="0 0 39 39" fill="none" xmlns="http://www.w3.org/2000/svg">
<circle cx="19.4313" cy="19.4313" r="19.4313" fill="#BD203B"/>
<path d="M25.3625 21.5417H21.8356C21.5933 21.5417 21.397 21.7381 21.397 21.9803V22.8635C21.397 23.1058 21.5933 23.3021 21.8356 23.3021H25.3625C25.6047 23.3021 25.8011 23.1058 25.8011 22.8635V21.9803C25.8011 21.7381 25.6047 21.5417 25.3625 21.5417Z" fill="white"/>
<path d="M19.5714 22.9114L21.434 24.8822C21.5087 24.963 21.6059 25.0194 21.7131 25.044C21.8203 25.0687 21.9324 25.0604 22.0349 25.0204C22.1382 24.9793 22.2267 24.908 22.2889 24.8158C22.351 24.7236 22.384 24.6148 22.3833 24.5036V20.3399C22.384 20.2287 22.351 20.1199 22.2889 20.0277C22.2267 19.9355 22.1382 19.8643 22.0349 19.8232C21.9324 19.7831 21.8203 19.7748 21.7131 19.7995C21.6059 19.8241 21.5087 19.8806 21.434 19.9614L19.5714 21.9321C19.4468 22.0647 19.3774 22.2398 19.3774 22.4218C19.3774 22.6037 19.4468 22.7788 19.5714 22.9114Z" fill="white"/>
<path d="M26.5047 27.6763H22.8336C22.7173 27.6763 22.6057 27.6301 22.5235 27.5479C22.4412 27.4656 22.395 27.3541 22.395 27.2377V26.3545C22.395 26.2382 22.4412 26.1266 22.5235 26.0444C22.6057 25.9621 22.7173 25.9159 22.8336 25.9159H26.5047C26.5818 25.9159 26.6558 25.9461 26.7108 26C26.7658 26.0539 26.7975 26.1273 26.7991 26.2043V27.406C26.7975 27.483 26.7658 27.5563 26.7108 27.6103C26.6558 27.6642 26.5818 27.6944 26.5047 27.6944V27.6763Z" fill="white"/>
<path d="M28.613 26.3063L26.7565 24.3356C26.6818 24.2548 26.5846 24.1984 26.4774 24.1737C26.3702 24.149 26.258 24.1573 26.1556 24.1974C26.0523 24.2385 25.9638 24.3097 25.9016 24.4019C25.8394 24.4941 25.8065 24.6029 25.8071 24.7141V28.8839C25.8065 28.995 25.8394 29.1038 25.9016 29.196C25.9638 29.2882 26.0523 29.3595 26.1556 29.4006C26.258 29.4406 26.3702 29.4489 26.4774 29.4242C26.5846 29.3996 26.6818 29.3432 26.7565 29.2624L28.613 27.2917C28.7408 27.1595 28.8122 26.9828 28.8122 26.799C28.8122 26.6151 28.7408 26.4385 28.613 26.3063Z" fill="white"/>
<path d="M17.8409 22.9118C17.7312 22.5187 17.7312 22.1032 17.8409 21.7101C18.0812 20.935 18.8382 20.0158 20.7188 18.8802C21.3336 18.541 21.8743 18.0822 22.3088 17.5306C22.7434 16.9791 23.0631 16.3462 23.249 15.6691C23.4349 14.992 23.4833 14.2845 23.3914 13.5884C23.2994 12.8923 23.069 12.2217 22.7136 11.6161C22.0331 10.4623 20.9422 9.60783 19.659 9.22353C18.3757 8.83922 16.9947 8.95341 15.792 9.54327C14.9434 9.9791 14.2294 10.6376 13.7265 11.4483C13.2235 12.2589 12.9507 13.1911 12.9371 14.145C12.9235 15.0989 13.1697 16.0385 13.6494 16.8631C14.129 17.6877 14.824 18.3663 15.6598 18.8261C15.667 19.0954 15.5881 19.36 15.4347 19.5815C15.2813 19.803 15.0613 19.9698 14.8067 20.0578C12.0548 21.0312 10 23.062 10 25.3211V26.5769C10 26.8685 10.1158 27.1481 10.322 27.3543C10.5282 27.5605 10.8079 27.6764 11.0995 27.6764H19.6854C19.7963 27.6663 19.9034 27.6307 19.9983 27.5724C20.0932 27.514 20.1732 27.4344 20.2322 27.3399C20.3982 27.116 20.4812 26.8413 20.4669 26.5628C20.4527 26.2844 20.3421 26.0196 20.1541 25.8138L19.7996 25.4173C18.9777 24.7292 18.3102 23.8754 17.8409 22.9118Z" fill="white"/>
</svg>
