<svg width="39" height="39" viewBox="0 0 39 39" fill="none" xmlns="http://www.w3.org/2000/svg">
<circle cx="19.4313" cy="19.4313" r="19.4313" fill="#BD203B"/>
<path fill-rule="evenodd" clip-rule="evenodd" d="M12.8566 10H25.907C26.9296 10 27.7642 10.8344 27.7642 11.8566V13.8618H11V11.8566C11 10.8344 11.8347 10 12.8566 10ZM24.2211 30.0366V28.6994H14.541V30.0366H13.1117V28.6994H12.8566C11.8347 28.6994 11 27.8648 11 26.8428V15.3619H27.7642V26.8428C27.7642 27.8648 26.9296 28.6994 25.907 28.6994H25.6504V30.0366H24.2211ZM15.67 11.3255H16.9624V12.5936H15.67V11.3255ZM12.4403 11.3255H13.7324V12.5936H12.4403V11.3255ZM19.382 16.4726C22.1896 16.4726 24.4762 18.7586 24.4762 21.5668C24.4762 24.3744 22.1877 26.659 19.382 26.659C16.5744 26.659 14.2877 24.376 14.2877 21.5668C14.2877 18.7553 16.5704 16.4726 19.382 16.4726ZM19.382 17.9019C17.3547 17.9019 15.717 19.539 15.717 21.5668C15.717 23.5923 17.3562 25.2297 19.382 25.2297C21.4095 25.2297 23.047 23.5941 23.047 21.5668C23.047 19.539 21.4095 17.9019 19.382 17.9019Z" fill="white"/>
</svg>
