<svg width="178" height="148" viewBox="0 0 178 148" fill="none" xmlns="http://www.w3.org/2000/svg">
<path d="M106.519 2H86.6968C84.5356 2 82.4465 2.77772 80.8114 4.19103L65.4026 17.5098C63.7675 18.9231 61.6784 19.7009 59.5172 19.7009H46C41.0294 19.7009 37 23.7303 37 28.7009V102C37 106.971 41.0294 111 46 111H106.519" stroke="white" stroke-width="4"/>
<path d="M105.981 2H125.803C127.964 2 130.053 2.77772 131.689 4.19103L147.097 17.5098C148.733 18.9231 150.822 19.7009 152.983 19.7009H166.5C171.471 19.7009 175.5 23.7303 175.5 28.7009V102C175.5 106.971 171.471 111 166.5 111H105.981" stroke="white" stroke-width="4"/>
<circle cx="105.5" cy="61.5" r="25.5" stroke="white" stroke-width="4"/>
<circle cx="36.5312" cy="111.469" r="36.5312" fill="url(#paint0_linear)"/>
<path d="M37.8906 102.12C39.1823 102.12 40.517 103.111 40.517 104.144C40.517 108.363 24.6298 110.301 24.6298 120.806V128.168H48.3099V122.959C48.3099 121.753 47.3627 120.806 46.1571 120.806H33.8865C33.8865 116.328 49.2571 114.52 49.2571 104.058C49.2571 98.2454 44.6933 94.758 37.0295 94.758H25.62V100.183C25.62 101.345 26.5672 102.12 27.7728 102.12H37.8906Z" fill="#F2F2F2"/>
<defs>
<linearGradient id="paint0_linear" x1="4.0267" y1="84.0372" x2="75.8472" y2="87.8769" gradientUnits="userSpaceOnUse">
<stop stop-color="#A90433"/>
<stop offset="0.497917" stop-color="#CB3E55"/>
<stop offset="1" stop-color="#A90433"/>
</linearGradient>
</defs>
</svg>
