<svg width="192" height="163" viewBox="0 0 192 163" fill="none" xmlns="http://www.w3.org/2000/svg">
<path d="M40 132V50.9267C40 48.4229 41.0431 46.0322 42.8785 44.3292L85.9107 4.40244C87.5751 2.85815 89.7617 2 92.0322 2H136C140.971 2 145 6.02944 145 11V132C145 136.971 140.971 141 136 141H49C44.0294 141 40 136.971 40 132Z" stroke="white" stroke-width="4"/>
<path d="M39 48H81C85.9706 48 90 43.9706 90 39V3" stroke="white" stroke-width="4"/>
<path d="M166.583 41.3639L108.861 99.0863C107.566 100.381 106.698 102.039 106.37 103.84L103.779 118.092C103.656 118.768 104.237 119.364 104.917 119.259L119.443 116.999C121.329 116.706 123.074 115.82 124.424 114.47L182.056 56.837C185.571 53.3223 185.571 47.6238 182.056 44.1091L179.311 41.3639C175.797 37.8492 170.098 37.8492 166.583 41.3639Z" fill="#2F2F2F" stroke="white" stroke-width="4"/>
<path d="M162.492 46.2913L177.547 61.3462" stroke="white" stroke-width="4"/>
<circle cx="36.5312" cy="126.469" r="36.5312" fill="url(#paint0_linear)"/>
<path d="M31.0047 109.758V114.968C31.0047 116.173 31.9519 117.12 33.1575 117.12V141.016C33.1575 142.221 34.1047 143.168 35.3102 143.168H41.7684V111.911C41.7684 110.705 40.8212 109.758 39.6157 109.758H31.0047Z" fill="#F2F2F2"/>
<defs>
<linearGradient id="paint0_linear" x1="4.0267" y1="99.0372" x2="75.8472" y2="102.877" gradientUnits="userSpaceOnUse">
<stop stop-color="#A90433"/>
<stop offset="0.497917" stop-color="#CB3E55"/>
<stop offset="1" stop-color="#A90433"/>
</linearGradient>
</defs>
</svg>
